<?xml version="1.0" encoding="UTF-8"?>
<svg version="1.1" xmlns="http://www.w3.org/2000/svg" width="500" height="500">
<path d="M0 0 C1.5912609 -0.00599486 3.18251892 -0.01280259 4.77377319 -0.02035522 C9.07165468 -0.03792799 13.36945638 -0.04270699 17.66737032 -0.0439868 C20.36077851 -0.04541426 23.05416681 -0.04969515 25.74757004 -0.05498123 C35.16766381 -0.07345482 44.58770121 -0.08165547 54.0078125 -0.08007812 C62.74989917 -0.07887844 71.49173828 -0.0999536 80.23376238 -0.13156545 C87.77046912 -0.15783483 95.30709554 -0.16844093 102.84384763 -0.16716731 C107.33125558 -0.16666067 111.8184434 -0.17217684 116.30580521 -0.19352341 C120.53311973 -0.21308582 124.76000825 -0.21290928 128.98733902 -0.19849014 C130.52546318 -0.19642282 132.0636153 -0.20097649 133.6016922 -0.21321106 C158.0913594 -0.39515752 173.95181628 8.37516512 191.31277466 25.37870789 C193.20641447 27.2514645 195.09752018 29.12654355 196.98632812 31.00415039 C198.03869279 32.04694608 199.09121839 33.08957937 200.14389038 34.13206482 C203.56114614 37.51831356 206.97319799 40.90977712 210.38427734 44.30224609 C210.96829614 44.88296757 211.55231494 45.46368905 212.15403128 46.06200814 C217.67736111 51.55459706 223.19864913 57.04923106 228.71513557 62.54869366 C235.72471427 69.53636942 242.74417257 76.51378226 249.77746785 83.47758836 C254.74970447 88.40238504 259.71021054 93.33880947 264.66240108 98.28376228 C267.60840326 101.22484316 270.55909993 104.16079413 273.52261734 107.08423424 C276.31202279 109.83639867 279.08642577 112.60288788 281.8506813 115.38030434 C282.85798918 116.3875589 283.87030206 117.38984158 284.88835907 118.38623047 C299.38072276 132.58685013 306.32329623 148.24974181 306.60044765 168.45941722 C306.60623585 170.644923 306.59423063 172.82991046 306.58154297 175.01538086 C306.58698128 176.61900462 306.59411339 178.22262337 306.6027832 179.82623291 C306.62081536 184.13000214 306.6140339 188.43338222 306.60126686 192.73715711 C306.59103536 197.27179732 306.60056021 201.80640746 306.60681152 206.34104919 C306.61405797 213.95048922 306.60457884 221.5597732 306.58544922 229.16918945 C306.56367843 237.92962218 306.57074548 246.68968245 306.59275484 255.4501062 C306.6109856 263.01326547 306.61343011 270.57631351 306.60300016 278.13948768 C306.59680819 282.63848491 306.59580988 287.13730783 306.60914612 291.63629341 C306.62081693 295.86782646 306.61247729 300.09888548 306.58956909 304.33036804 C306.58434162 305.8705155 306.58569154 307.41070382 306.59461975 308.95083427 C306.71941105 332.69094563 298.34360656 347.83959745 281.91090393 364.59075928 C280.00805624 366.50848622 278.10283082 368.42361133 276.19506836 370.33642578 C275.13591094 371.40186762 274.07693606 372.46749095 273.01812744 373.53327942 C269.57987622 376.99231387 266.13652611 380.44624905 262.69287109 383.89990234 C261.49908867 385.09774003 260.30533724 386.29560859 259.11161613 387.49350739 C253.5067884 393.11731904 247.89959831 398.73876198 242.28945976 404.35727572 C235.84196839 410.8145565 229.40286399 417.28005353 222.97066742 423.75256896 C217.9753122 428.77814753 212.97224471 433.79596497 207.96340889 438.80810761 C204.98150493 441.79235196 202.00293821 444.77974969 199.03253365 447.77544403 C196.23985745 450.59151985 193.43766661 453.39777745 190.62815857 456.19705772 C189.60486679 457.21985717 188.58492843 458.24602568 187.56881523 459.27595711 C173.64993465 473.37332851 158.56957121 480.40242175 138.70560002 480.57572865 C136.5130058 480.58409444 134.32053753 480.58271296 132.12792969 480.58105469 C130.53666878 480.58704955 128.94541077 480.59385728 127.35415649 480.60140991 C123.05627501 480.61898268 118.75847331 480.62376167 114.46055937 480.62504148 C111.76715117 480.62646895 109.07376288 480.63074984 106.38035965 480.63603592 C96.96026587 480.65450951 87.54022848 480.66271015 78.12011719 480.66113281 C69.37803051 480.65993313 60.6361914 480.68100829 51.8941673 480.71262014 C44.35746057 480.73888952 36.82083414 480.74949562 29.28408206 480.74822199 C24.79667411 480.74771535 20.30948629 480.75323152 15.82212448 480.77457809 C11.59480996 480.79414051 7.36792144 480.79396397 3.14059067 480.77954483 C1.6024665 480.77747751 0.06431438 480.78203118 -1.47376251 480.79426575 C-21.71930126 480.94468037 -39.03443793 475.70213008 -53.93603516 461.29052734 C-53.93603516 460.63052734 -53.93603516 459.97052734 -53.93603516 459.29052734 C-54.59603516 459.29052734 -55.25603516 459.29052734 -55.93603516 459.29052734 C-57.24072266 457.92724609 -57.24072266 457.92724609 -58.81103516 455.97802734 C-62.43740095 451.69647781 -66.41684899 447.9755041 -70.58398438 444.23657227 C-73.80374094 441.34662634 -76.98808543 438.45984326 -79.93603516 435.29052734 C-79.93603516 434.63052734 -79.93603516 433.97052734 -79.93603516 433.29052734 C-80.77134766 432.95021484 -80.77134766 432.95021484 -81.62353516 432.60302734 C-84.59763103 430.91502698 -86.65612381 428.82376218 -88.93603516 426.29052734 C-88.93603516 425.63052734 -88.93603516 424.97052734 -88.93603516 424.29052734 C-89.59603516 424.29052734 -90.25603516 424.29052734 -90.93603516 424.29052734 C-92.37353516 422.79443359 -92.37353516 422.79443359 -93.93603516 420.85302734 C-96.08128559 418.13864496 -96.08128559 418.13864496 -98.93603516 416.29052734 C-98.93603516 415.63052734 -98.93603516 414.97052734 -98.93603516 414.29052734 C-99.59603516 414.29052734 -100.25603516 414.29052734 -100.93603516 414.29052734 C-102.45166016 412.71630859 -102.45166016 412.71630859 -104.18603516 410.60302734 C-106.35500689 408.04417846 -108.34327688 405.95115924 -110.93603516 403.79052734 C-114.16495148 401.09976374 -116.73467535 398.18044495 -119.42041016 394.96240234 C-120.8499445 393.18261566 -120.8499445 393.18261566 -122.93603516 392.29052734 C-122.93603516 391.63052734 -122.93603516 390.97052734 -122.93603516 390.29052734 C-123.59603516 390.29052734 -124.25603516 390.29052734 -124.93603516 390.29052734 C-126.13745117 389.0546875 -126.13745117 389.0546875 -127.62744141 387.20458984 C-131.1677566 383.03681905 -134.97828573 379.23999617 -138.90087891 375.43896484 C-140.20897753 374.16178076 -141.51691691 372.88443356 -142.82470703 371.60693359 C-144.84241422 369.63830775 -146.86399165 367.67466952 -148.8996582 365.72460938 C-162.11121311 353.04395463 -173.30402496 339.14635585 -174.06746292 319.9932766 C-174.07043758 318.79025209 -174.07341225 317.58722759 -174.07647705 316.3477478 C-174.07944817 315.67321835 -174.0824193 314.9986889 -174.08548045 314.30371916 C-174.09411246 312.05630779 -174.09567102 309.80895003 -174.09716797 307.56152344 C-174.10180011 305.94466032 -174.10682531 304.32779828 -174.11221313 302.7109375 C-174.12530263 298.32632978 -174.13177557 293.94173736 -174.13622379 289.55711317 C-174.13916064 286.81351105 -174.14326664 284.06991305 -174.14772797 281.32631302 C-174.16139502 272.72993979 -174.17106504 264.13357604 -174.17492986 255.5371927 C-174.17940608 245.63708399 -174.19693704 235.73711364 -174.22593045 225.83704698 C-174.24760011 218.16970776 -174.25763698 210.50240732 -174.25897098 202.83503783 C-174.2600154 198.26277755 -174.26584542 193.69064749 -174.28379059 189.11841965 C-174.30036248 184.812444 -174.30238291 180.50669518 -174.29365158 176.20069885 C-174.29288601 174.62864699 -174.29715989 173.05658248 -174.30710983 171.48456192 C-174.41967682 152.57637689 -169.72135853 137.75510718 -157.63525391 122.98583984 C-155.93603516 121.29052734 -155.93603516 121.29052734 -153.93603516 121.29052734 C-153.93603516 120.63052734 -153.93603516 119.97052734 -153.93603516 119.29052734 C-153.27603516 119.29052734 -152.61603516 119.29052734 -151.93603516 119.29052734 C-151.93603516 118.63052734 -151.93603516 117.97052734 -151.93603516 117.29052734 C-151.27603516 117.29052734 -150.61603516 117.29052734 -149.93603516 117.29052734 C-149.44103516 115.80552734 -149.44103516 115.80552734 -148.93603516 114.29052734 C-148.27603516 114.29052734 -147.61603516 114.29052734 -146.93603516 114.29052734 C-146.44103516 112.80552734 -146.44103516 112.80552734 -145.93603516 111.29052734 C-145.27603516 111.29052734 -144.61603516 111.29052734 -143.93603516 111.29052734 C-143.27603516 109.97052734 -142.61603516 108.65052734 -141.93603516 107.29052734 C-141.27603516 107.29052734 -140.61603516 107.29052734 -139.93603516 107.29052734 C-139.44103516 105.80552734 -139.44103516 105.80552734 -138.93603516 104.29052734 C-136.49853516 101.60302734 -136.49853516 101.60302734 -133.93603516 99.29052734 C-133.27603516 99.29052734 -132.61603516 99.29052734 -131.93603516 99.29052734 C-131.44103516 97.80552734 -131.44103516 97.80552734 -130.93603516 96.29052734 C-129.33447266 94.74755859 -129.33447266 94.74755859 -127.31103516 93.10302734 C-123.5751635 89.95844473 -120.46459967 86.57320989 -117.38134766 82.79443359 C-116.66591797 82.05 -116.66591797 82.05 -115.93603516 81.29052734 C-115.27603516 81.29052734 -114.61603516 81.29052734 -113.93603516 81.29052734 C-113.68724609 80.70271484 -113.43845703 80.11490234 -113.18212891 79.50927734 C-111.76199711 76.98064141 -110.23473298 75.62279372 -107.99853516 73.79052734 C-105.78562393 71.97056297 -104.00711909 70.3873515 -102.30712891 68.07177734 C-101.85466797 67.48396484 -101.40220703 66.89615234 -100.93603516 66.29052734 C-100.27603516 66.29052734 -99.61603516 66.29052734 -98.93603516 66.29052734 C-98.93603516 65.63052734 -98.93603516 64.97052734 -98.93603516 64.29052734 C-97.36181641 62.73974609 -97.36181641 62.73974609 -95.24853516 60.97802734 C-89.70918138 56.33581938 -84.76755829 51.10718325 -79.70553589 45.95742798 C-76.31122655 42.50939198 -72.90615794 39.07206539 -69.50048828 35.63525391 C-67.71461713 33.82928036 -65.93235417 32.01973129 -64.15380859 30.20654297 C-61.56740111 27.57119049 -58.96791188 24.94934939 -56.36572266 22.32958984 C-55.58510468 21.52832672 -54.80448669 20.7270636 -54.00021362 19.90151978 C-38.30373605 4.19883372 -21.55537615 -0.01630239 0 0 Z " fill="#282243" transform="translate(183.93603515625,9.70947265625)"/>
<path d="M0 0 C1.5912609 -0.00599486 3.18251892 -0.01280259 4.77377319 -0.02035522 C9.07165468 -0.03792799 13.36945638 -0.04270699 17.66737032 -0.0439868 C20.36077851 -0.04541426 23.05416681 -0.04969515 25.74757004 -0.05498123 C35.16766381 -0.07345482 44.58770121 -0.08165547 54.0078125 -0.08007812 C62.74989917 -0.07887844 71.49173828 -0.0999536 80.23376238 -0.13156545 C87.77046912 -0.15783483 95.30709554 -0.16844093 102.84384763 -0.16716731 C107.33125558 -0.16666067 111.8184434 -0.17217684 116.30580521 -0.19352341 C120.53311973 -0.21308582 124.76000825 -0.21290928 128.98733902 -0.19849014 C130.52546318 -0.19642282 132.0636153 -0.20097649 133.6016922 -0.21321106 C158.0913594 -0.39515752 173.95181628 8.37516512 191.31277466 25.37870789 C193.20641447 27.2514645 195.09752018 29.12654355 196.98632812 31.00415039 C198.03869279 32.04694608 199.09121839 33.08957937 200.14389038 34.13206482 C203.56114614 37.51831356 206.97319799 40.90977712 210.38427734 44.30224609 C210.96829614 44.88296757 211.55231494 45.46368905 212.15403128 46.06200814 C217.67736111 51.55459706 223.19864913 57.04923106 228.71513557 62.54869366 C235.72471427 69.53636942 242.74417257 76.51378226 249.77746785 83.47758836 C254.74970447 88.40238504 259.71021054 93.33880947 264.66240108 98.28376228 C267.60840326 101.22484316 270.55909993 104.16079413 273.52261734 107.08423424 C276.31202279 109.83639867 279.08642577 112.60288788 281.8506813 115.38030434 C282.85798918 116.3875589 283.87030206 117.38984158 284.88835907 118.38623047 C299.38072276 132.58685013 306.32329623 148.24974181 306.60044765 168.45941722 C306.60623585 170.644923 306.59423063 172.82991046 306.58154297 175.01538086 C306.58698128 176.61900462 306.59411339 178.22262337 306.6027832 179.82623291 C306.62081536 184.13000214 306.6140339 188.43338222 306.60126686 192.73715711 C306.59103536 197.27179732 306.60056021 201.80640746 306.60681152 206.34104919 C306.61405797 213.95048922 306.60457884 221.5597732 306.58544922 229.16918945 C306.56367843 237.92962218 306.57074548 246.68968245 306.59275484 255.4501062 C306.6109856 263.01326547 306.61343011 270.57631351 306.60300016 278.13948768 C306.59680819 282.63848491 306.59580988 287.13730783 306.60914612 291.63629341 C306.62081693 295.86782646 306.61247729 300.09888548 306.58956909 304.33036804 C306.58434162 305.8705155 306.58569154 307.41070382 306.59461975 308.95083427 C306.71941105 332.69094563 298.34360656 347.83959745 281.91090393 364.59075928 C280.00805624 366.50848622 278.10283082 368.42361133 276.19506836 370.33642578 C275.13591094 371.40186762 274.07693606 372.46749095 273.01812744 373.53327942 C269.57987622 376.99231387 266.13652611 380.44624905 262.69287109 383.89990234 C261.49908867 385.09774003 260.30533724 386.29560859 259.11161613 387.49350739 C253.5067884 393.11731904 247.89959831 398.73876198 242.28945976 404.35727572 C235.84196839 410.8145565 229.40286399 417.28005353 222.97066742 423.75256896 C217.9753122 428.77814753 212.97224471 433.79596497 207.96340889 438.80810761 C204.98150493 441.79235196 202.00293821 444.77974969 199.03253365 447.77544403 C196.23985745 450.59151985 193.43766661 453.39777745 190.62815857 456.19705772 C189.60486679 457.21985717 188.58492843 458.24602568 187.56881523 459.27595711 C173.64993465 473.37332851 158.56957121 480.40242175 138.70560002 480.57572865 C136.5130058 480.58409444 134.32053753 480.58271296 132.12792969 480.58105469 C130.53666878 480.58704955 128.94541077 480.59385728 127.35415649 480.60140991 C123.05627501 480.61898268 118.75847331 480.62376167 114.46055937 480.62504148 C111.76715117 480.62646895 109.07376288 480.63074984 106.38035965 480.63603592 C96.96026587 480.65450951 87.54022848 480.66271015 78.12011719 480.66113281 C69.37803051 480.65993313 60.6361914 480.68100829 51.8941673 480.71262014 C44.35746057 480.73888952 36.82083414 480.74949562 29.28408206 480.74822199 C24.79667411 480.74771535 20.30948629 480.75323152 15.82212448 480.77457809 C11.59480996 480.79414051 7.36792144 480.79396397 3.14059067 480.77954483 C1.6024665 480.77747751 0.06431438 480.78203118 -1.47376251 480.79426575 C-21.71930126 480.94468037 -39.03443793 475.70213008 -53.93603516 461.29052734 C-53.93603516 460.63052734 -53.93603516 459.97052734 -53.93603516 459.29052734 C-54.59603516 459.29052734 -55.25603516 459.29052734 -55.93603516 459.29052734 C-57.24072266 457.92724609 -57.24072266 457.92724609 -58.81103516 455.97802734 C-62.43740095 451.69647781 -66.41684899 447.9755041 -70.58398438 444.23657227 C-73.80374094 441.34662634 -76.98808543 438.45984326 -79.93603516 435.29052734 C-79.93603516 434.63052734 -79.93603516 433.97052734 -79.93603516 433.29052734 C-80.77134766 432.95021484 -80.77134766 432.95021484 -81.62353516 432.60302734 C-84.59763103 430.91502698 -86.65612381 428.82376218 -88.93603516 426.29052734 C-88.93603516 425.63052734 -88.93603516 424.97052734 -88.93603516 424.29052734 C-89.59603516 424.29052734 -90.25603516 424.29052734 -90.93603516 424.29052734 C-92.37353516 422.79443359 -92.37353516 422.79443359 -93.93603516 420.85302734 C-96.08128559 418.13864496 -96.08128559 418.13864496 -98.93603516 416.29052734 C-98.93603516 415.63052734 -98.93603516 414.97052734 -98.93603516 414.29052734 C-99.59603516 414.29052734 -100.25603516 414.29052734 -100.93603516 414.29052734 C-102.45166016 412.71630859 -102.45166016 412.71630859 -104.18603516 410.60302734 C-106.35500689 408.04417846 -108.34327688 405.95115924 -110.93603516 403.79052734 C-114.16495148 401.09976374 -116.73467535 398.18044495 -119.42041016 394.96240234 C-120.8499445 393.18261566 -120.8499445 393.18261566 -122.93603516 392.29052734 C-122.93603516 391.63052734 -122.93603516 390.97052734 -122.93603516 390.29052734 C-123.59603516 390.29052734 -124.25603516 390.29052734 -124.93603516 390.29052734 C-126.13745117 389.0546875 -126.13745117 389.0546875 -127.62744141 387.20458984 C-131.1677566 383.03681905 -134.97828573 379.23999617 -138.90087891 375.43896484 C-140.20897753 374.16178076 -141.51691691 372.88443356 -142.82470703 371.60693359 C-144.84241422 369.63830775 -146.86399165 367.67466952 -148.8996582 365.72460938 C-162.11121311 353.04395463 -173.30402496 339.14635585 -174.06746292 319.9932766 C-174.07043758 318.79025209 -174.07341225 317.58722759 -174.07647705 316.3477478 C-174.07944817 315.67321835 -174.0824193 314.9986889 -174.08548045 314.30371916 C-174.09411246 312.05630779 -174.09567102 309.80895003 -174.09716797 307.56152344 C-174.10180011 305.94466032 -174.10682531 304.32779828 -174.11221313 302.7109375 C-174.12530263 298.32632978 -174.13177557 293.94173736 -174.13622379 289.55711317 C-174.13916064 286.81351105 -174.14326664 284.06991305 -174.14772797 281.32631302 C-174.16139502 272.72993979 -174.17106504 264.13357604 -174.17492986 255.5371927 C-174.17940608 245.63708399 -174.19693704 235.73711364 -174.22593045 225.83704698 C-174.24760011 218.16970776 -174.25763698 210.50240732 -174.25897098 202.83503783 C-174.2600154 198.26277755 -174.26584542 193.69064749 -174.28379059 189.11841965 C-174.30036248 184.812444 -174.30238291 180.50669518 -174.29365158 176.20069885 C-174.29288601 174.62864699 -174.29715989 173.05658248 -174.30710983 171.48456192 C-174.41967682 152.57637689 -169.72135853 137.75510718 -157.63525391 122.98583984 C-155.93603516 121.29052734 -155.93603516 121.29052734 -153.93603516 121.29052734 C-153.93603516 120.63052734 -153.93603516 119.97052734 -153.93603516 119.29052734 C-153.27603516 119.29052734 -152.61603516 119.29052734 -151.93603516 119.29052734 C-151.93603516 118.63052734 -151.93603516 117.97052734 -151.93603516 117.29052734 C-151.27603516 117.29052734 -150.61603516 117.29052734 -149.93603516 117.29052734 C-149.44103516 115.80552734 -149.44103516 115.80552734 -148.93603516 114.29052734 C-148.27603516 114.29052734 -147.61603516 114.29052734 -146.93603516 114.29052734 C-146.44103516 112.80552734 -146.44103516 112.80552734 -145.93603516 111.29052734 C-145.27603516 111.29052734 -144.61603516 111.29052734 -143.93603516 111.29052734 C-143.27603516 109.97052734 -142.61603516 108.65052734 -141.93603516 107.29052734 C-141.27603516 107.29052734 -140.61603516 107.29052734 -139.93603516 107.29052734 C-139.44103516 105.80552734 -139.44103516 105.80552734 -138.93603516 104.29052734 C-136.49853516 101.60302734 -136.49853516 101.60302734 -133.93603516 99.29052734 C-133.27603516 99.29052734 -132.61603516 99.29052734 -131.93603516 99.29052734 C-131.44103516 97.80552734 -131.44103516 97.80552734 -130.93603516 96.29052734 C-129.33447266 94.74755859 -129.33447266 94.74755859 -127.31103516 93.10302734 C-123.5751635 89.95844473 -120.46459967 86.57320989 -117.38134766 82.79443359 C-116.66591797 82.05 -116.66591797 82.05 -115.93603516 81.29052734 C-115.27603516 81.29052734 -114.61603516 81.29052734 -113.93603516 81.29052734 C-113.68724609 80.70271484 -113.43845703 80.11490234 -113.18212891 79.50927734 C-111.76199711 76.98064141 -110.23473298 75.62279372 -107.99853516 73.79052734 C-105.78562393 71.97056297 -104.00711909 70.3873515 -102.30712891 68.07177734 C-101.85466797 67.48396484 -101.40220703 66.89615234 -100.93603516 66.29052734 C-100.27603516 66.29052734 -99.61603516 66.29052734 -98.93603516 66.29052734 C-98.93603516 65.63052734 -98.93603516 64.97052734 -98.93603516 64.29052734 C-97.36181641 62.73974609 -97.36181641 62.73974609 -95.24853516 60.97802734 C-89.70918138 56.33581938 -84.76755829 51.10718325 -79.70553589 45.95742798 C-76.31122655 42.50939198 -72.90615794 39.07206539 -69.50048828 35.63525391 C-67.71461713 33.82928036 -65.93235417 32.01973129 -64.15380859 30.20654297 C-61.56740111 27.57119049 -58.96791188 24.94934939 -56.36572266 22.32958984 C-55.58510468 21.52832672 -54.80448669 20.7270636 -54.00021362 19.90151978 C-38.30373605 4.19883372 -21.55537615 -0.01630239 0 0 Z M-64.98681641 67.10302734 C-65.99209483 68.1042461 -66.99740197 69.10543602 -68.00273705 70.1065979 C-72.72150438 74.80641699 -77.43792555 79.50857484 -82.15142661 84.2136755 C-87.553688 89.60614206 -92.96416097 94.99019326 -98.3816312 100.36737919 C-102.59965459 104.55512847 -106.80986365 108.75063383 -111.01442784 112.95189571 C-113.51298265 115.44811724 -116.01462925 117.9410266 -118.524683 120.4256897 C-121.32316636 123.1963041 -124.10535549 125.98294723 -126.88647461 128.77099609 C-127.70272308 129.57443451 -128.51897156 130.37787292 -129.35995483 131.20565796 C-142.51004519 144.4748948 -149.21007409 159.96575346 -149.34262085 178.65066528 C-149.33654816 179.91490326 -149.33047546 181.17914124 -149.32421875 182.48168945 C-149.32829523 183.86136793 -149.33364309 185.24104313 -149.34014893 186.62071228 C-149.35370193 190.3315831 -149.3485739 194.04220072 -149.33901167 197.75307536 C-149.33135058 201.66006131 -149.33847855 205.56702737 -149.34317017 209.47401428 C-149.34860976 216.03292685 -149.34148421 222.59173769 -149.32714844 229.15063477 C-149.31083219 236.70219648 -149.31611019 244.25351501 -149.33262765 251.80507082 C-149.34630217 258.32098194 -149.34813301 264.83682044 -149.34031165 271.3527413 C-149.33566685 275.23020089 -149.33492105 279.10754671 -149.34492111 282.9849987 C-149.35367576 286.63366087 -149.34741647 290.28201384 -149.33023834 293.93064308 C-149.32446845 295.88537818 -149.3332164 297.84013985 -149.34262085 299.79486084 C-149.18663614 321.83577828 -140.68675837 338.02174733 -125.34155273 353.2890625 C-124.38254806 354.25378313 -123.42417157 355.21912857 -122.46636963 356.18504333 C-119.88426446 358.78496109 -117.29282464 361.37537376 -114.69893861 363.96353197 C-112.52443016 366.13493079 -110.35455744 368.31093343 -108.18461531 370.48689401 C-103.05997702 375.62553729 -97.92763439 380.75639292 -92.7902832 385.88232422 C-87.51285161 391.14828257 -82.24831579 396.42688208 -76.9900406 401.7119633 C-72.4544022 406.26984512 -67.91094752 410.81983125 -63.36124915 415.36367834 C-60.65310808 418.06846875 -57.94785833 420.77598742 -55.25007057 423.49110794 C-52.71040336 426.0463804 -50.16100013 428.59154331 -47.60420227 431.1296711 C-46.23638919 432.49211356 -44.87830024 433.8642975 -43.52067566 435.2368927 C-35.93852092 442.73022284 -27.74252661 448.78722927 -17.56103516 452.16552734 C-16.41892578 452.55482422 -15.27681641 452.94412109 -14.10009766 453.34521484 C-9.31385055 454.77518003 -5.03066732 455.41647012 -0.03137207 455.43096924 C1.15152405 455.43667938 2.33442017 455.44238953 3.55316162 455.44827271 C5.48726898 455.44994949 5.48726898 455.44994949 7.46044922 455.45166016 C8.83909232 455.45629225 10.21773415 455.46131744 11.59637451 455.46670532 C15.33650097 455.47979884 19.0766095 455.48626902 22.81675529 455.49071598 C25.15850436 455.49365333 27.50024861 455.49775951 29.84199524 455.50222015 C37.18309044 455.51589081 44.52417453 455.52555799 51.86528158 455.52942204 C60.31194775 455.53389342 68.75845134 455.55140018 77.20506811 455.58042264 C83.75054419 455.60212394 90.29597483 455.61213091 96.84148645 455.61346316 C100.74254779 455.61450572 104.64345623 455.62029468 108.54447937 455.63828278 C112.2217422 455.65490893 115.89873962 455.65684951 119.57602692 455.64814377 C121.54755098 455.64702094 123.5190668 455.66062783 125.49053955 455.67489624 C147.58206192 455.57283429 163.79261928 447.05507012 179.07836914 431.66430664 C180.04470246 430.70204809 181.01167069 429.74042678 181.97921753 428.77938843 C184.58311707 426.18906062 187.1775632 423.58945997 189.76990104 420.98756766 C192.49718053 418.2526386 195.2318342 415.52509812 197.96528625 412.79634094 C202.55249399 408.21457543 207.13337629 403.62655722 211.71069336 399.03491211 C216.98616683 393.74311513 222.27236 388.46221155 227.56424969 383.18683499 C232.12545743 378.63928595 236.68073706 374.08586079 241.23120433 369.52756435 C243.94114802 366.81296816 246.6530192 364.10038084 249.3702755 361.39310265 C251.9257762 358.84633342 254.47370255 356.2922116 257.01621628 353.7324791 C258.3840995 352.35880344 259.75928339 350.99240947 261.13475037 349.62632751 C267.71020887 342.98370886 273.21573537 336.11535614 276.81396484 327.41552734 C277.20068359 326.51060547 277.58740234 325.60568359 277.98583984 324.67333984 C280.97783172 315.28542332 281.36150037 306.01965261 281.35449219 296.22875977 C281.36049145 294.85085186 281.36730016 293.47294729 281.37484741 292.095047 C281.39237083 288.38411458 281.39719691 284.67327463 281.39847898 280.96230483 C281.39990874 278.63558435 281.40419376 276.30888676 281.40947342 273.98217201 C281.4279273 265.84169672 281.43614973 257.70128654 281.43457031 249.56079102 C281.43336962 242.00980164 281.45446964 234.4590984 281.48605764 226.90818137 C281.51232709 220.39313152 281.52293319 213.87817454 281.52165949 207.36307222 C281.52115306 203.48606248 281.52665795 199.60930758 281.54801559 195.7323513 C281.56757976 192.0820136 281.56740066 188.4321692 281.55298233 184.78181267 C281.54994159 182.8284245 281.56644166 180.87503527 281.5838623 178.92172241 C281.36763712 148.03928881 260.87486775 130.9392085 240.66753912 110.69391298 C239.16792815 109.19133952 237.66889254 107.68819423 236.17001724 106.18488693 C231.46031788 101.4615874 226.74867696 96.74023781 222.03411949 92.02178729 C216.62627081 86.60944503 211.22505785 81.19059256 205.8294152 75.76608241 C201.6297464 71.544738 197.42427284 67.32923359 193.21441948 63.11804616 C190.71175322 60.61433815 188.21151327 58.10832302 185.71734238 55.59614944 C182.93874576 52.79787729 180.14813575 50.01177458 177.35644531 47.2265625 C176.54581635 46.40671875 175.73518738 45.586875 174.8999939 44.7421875 C167.57301455 37.46816204 160.21761164 32.19274227 150.37646484 28.97802734 C149.65652344 28.72730469 148.93658203 28.47658203 148.19482422 28.21826172 C142.15864995 26.16585242 136.44724972 25.17008628 130.04577637 25.14335632 C128.86295074 25.13620102 127.68012512 25.12904572 126.4614563 25.12167358 C125.17721771 25.11898468 123.89297913 25.11629578 122.56982422 25.11352539 C121.19265576 25.10725315 119.81548896 25.10060568 118.43832397 25.09361267 C113.92813273 25.07265315 109.41794148 25.06221505 104.90771484 25.05224609 C103.34847497 25.04819493 101.78923526 25.04407791 100.22999573 25.03989601 C92.89904975 25.02085889 85.56811372 25.00662708 78.23714781 24.99828404 C69.80743361 24.98852935 61.37798323 24.96225006 52.94836187 24.92178315 C46.41219294 24.89149562 39.87609907 24.87680311 33.33986139 24.87350303 C29.4459932 24.87116615 25.55240728 24.8623859 21.65861511 24.83704185 C17.98784662 24.81353466 14.31754171 24.8096172 10.64671707 24.81980324 C8.68133786 24.82052433 6.71598097 24.80159195 4.7507019 24.78173828 C-26.795456 24.96346519 -44.32436161 46.5122826 -64.98681641 67.10302734 Z " fill="#282243" transform="translate(183.93603515625,9.70947265625)"/>
<path d="M0 0 C1.37967847 -0.00407648 2.75935367 -0.00942434 4.13902283 -0.01593018 C7.84989364 -0.02948318 11.56051127 -0.02435515 15.27138591 -0.01479292 C19.17837186 -0.00713183 23.08533791 -0.0142598 26.99232483 -0.01895142 C33.5512374 -0.02439101 40.11004823 -0.01726546 46.66894531 -0.00292969 C54.22050703 0.01338656 61.77182555 0.00810856 69.32338136 -0.0084089 C75.83929249 -0.02208342 82.35513099 -0.02391426 88.87105185 -0.0160929 C92.74851144 -0.0114481 96.62585726 -0.0107023 100.50330925 -0.02070236 C104.15197141 -0.02945701 107.80032438 -0.02319772 111.44895363 -0.00601959 C113.40368872 -0.0002497 115.3584504 -0.00899765 117.31317139 -0.0184021 C139.35408883 0.13758261 155.54005787 8.63746038 170.80737305 23.98266602 C171.77209368 24.94167069 172.73743912 25.90004718 173.70335388 26.85784912 C176.30327164 29.43995429 178.89368431 32.03139411 181.48184252 34.62528014 C183.65324134 36.79978859 185.82924398 38.96966131 188.00520456 41.13960344 C193.14384784 46.26424173 198.27470347 51.39658436 203.40063477 56.53393555 C208.66659312 61.81136714 213.94519263 67.07590296 219.23027384 72.33417815 C223.78815566 76.86981655 228.3381418 81.41327123 232.88198888 85.9629696 C235.5867793 88.67111067 238.29429797 91.37636042 241.00941849 94.07414818 C243.56469094 96.61381539 246.10985386 99.16321862 248.64798164 101.72001648 C250.01042411 103.08782956 251.38260805 104.44591851 252.75520325 105.80354309 C267.43457824 120.65692477 273.29638102 136.89427304 273.19702148 157.5793457 C273.20109797 158.95902418 273.20644582 160.33869938 273.21295166 161.71836853 C273.22650466 165.42923935 273.22137663 169.13985697 273.2118144 172.85073161 C273.20415331 176.75771756 273.21128129 180.66468362 273.2159729 184.57167053 C273.2214125 191.1305831 273.21428695 197.68939394 273.19995117 204.24829102 C273.18363492 211.79985273 273.18891292 219.35117126 273.20543039 226.90272707 C273.21910491 233.41863819 273.22093574 239.93447669 273.21311438 246.45039755 C273.20846958 250.32785714 273.20772379 254.20520296 273.21772385 258.08265495 C273.2264785 261.73131712 273.2202192 265.37967009 273.20304108 269.02829933 C273.19727118 270.98303443 273.20601914 272.9377961 273.21542358 274.89251709 C273.05932562 296.94943763 264.55219991 313.13787426 249.18261719 328.40258789 C248.22035864 329.36892121 247.25873733 330.33588944 246.29769897 331.30343628 C243.70737117 333.90733582 241.10777052 336.50178195 238.50587821 339.09411979 C235.77094915 341.82139928 233.04340866 344.55605295 230.31465149 347.289505 C225.73288598 351.87671274 221.14486777 356.45759504 216.55322266 361.03491211 C211.26142567 366.31038558 205.9805221 371.59657875 200.70514554 376.88846844 C196.1575965 381.44967618 191.60417134 386.00495581 187.04587489 390.55542308 C184.33127871 393.26536677 181.61869139 395.97723795 178.91141319 398.69449425 C176.36464397 401.24999495 173.81052215 403.7979213 171.25078964 406.34043503 C169.87711399 407.70831825 168.51072001 409.08350214 167.14463806 410.45896912 C160.50201941 417.03442762 153.63366669 422.53995412 144.93383789 426.13818359 C143.57645508 426.71826172 143.57645508 426.71826172 142.19165039 427.31005859 C132.78962316 430.30654764 123.52078321 430.68197848 113.71533203 430.6628418 C112.33417997 430.66719973 110.95303031 430.67238644 109.57188416 430.67832947 C105.85281245 430.69161322 102.13384302 430.69231021 98.41475224 430.68976617 C95.29623629 430.68868939 92.17774044 430.69359766 89.05922884 430.69837159 C81.69588306 430.7094296 74.33258832 430.70992486 66.96923828 430.70385742 C59.40235101 430.69781768 51.83564969 430.71013715 44.26879412 430.73142749 C37.74358606 430.74910404 31.21843687 430.75503543 24.69320577 430.75178975 C20.8084862 430.74998669 16.92389936 430.75251468 13.03920174 430.76650429 C9.38400653 430.77917754 5.72909918 430.77705004 2.07390785 430.7640934 C0.11299497 430.7606411 -1.84792711 430.77183456 -3.80880737 430.78366089 C-34.70271516 430.60238443 -51.42157928 410.31976144 -71.78777647 389.99175787 C-73.29034993 388.4921469 -74.79349522 386.99311129 -76.29680252 385.49423599 C-81.02010205 380.78453663 -85.74145164 376.07289571 -90.45990217 371.35833824 C-95.87224443 365.95048956 -101.2910969 360.5492766 -106.71560705 355.15363395 C-110.93695145 350.95396515 -115.15245586 346.74849159 -119.36364329 342.53863823 C-121.8673513 340.03597197 -124.37336643 337.53573202 -126.88554001 335.04156113 C-129.68381216 332.26296451 -132.46991487 329.4723545 -135.25512695 326.68066406 C-136.0749707 325.8700351 -136.89481445 325.05940613 -137.73950195 324.22421265 C-144.14228125 317.77482201 -149.44478746 310.96674696 -152.94116211 302.51318359 C-153.52124023 301.15580078 -153.52124023 301.15580078 -154.11303711 299.77099609 C-157.10502898 290.38307957 -157.48869763 281.11730886 -157.48168945 271.32641602 C-157.48768872 269.94850811 -157.49449742 268.57060354 -157.50204468 267.19270325 C-157.5195681 263.48177083 -157.52439418 259.77093088 -157.52567625 256.05996108 C-157.52710601 253.7332406 -157.53139103 251.40654301 -157.53667068 249.07982826 C-157.55512456 240.93935297 -157.56334699 232.79894279 -157.56176758 224.65844727 C-157.56056689 217.10745789 -157.5816669 209.55675465 -157.6132549 202.00583762 C-157.63952435 195.49078777 -157.65013046 188.97583079 -157.64885676 182.46072847 C-157.64835033 178.58371873 -157.65385522 174.70696383 -157.67521286 170.83000755 C-157.69477703 167.17966985 -157.69459792 163.52982545 -157.6801796 159.87946892 C-157.67713885 157.92608075 -157.69363893 155.97269152 -157.71105957 154.01937866 C-157.4904079 122.5047307 -135.95257209 104.98296374 -115.37866211 84.33740234 C-114.37744335 83.33212392 -113.37625343 82.32681678 -112.37509155 81.3214817 C-107.67527246 76.60271437 -102.97311461 71.8862932 -98.26801395 67.17279214 C-92.87554739 61.77053075 -87.4914962 56.36005778 -82.11431026 50.94258755 C-77.92656099 46.72456416 -73.73105562 42.5143551 -69.52979374 38.30979091 C-67.03357222 35.8112361 -64.54066286 33.3095895 -62.05599976 30.79953575 C-59.28538535 28.00105239 -56.49874222 25.21886326 -53.71069336 22.43774414 C-52.90725494 21.62149567 -52.10381653 20.80524719 -51.27603149 19.96426392 C-36.67661933 5.49594207 -20.29524854 -0.09748703 0 0 Z M-56.73657227 33.72485352 C-57.63226425 34.61076172 -58.52795624 35.49666992 -59.45079041 36.40942383 C-62.38102249 39.30872493 -65.30612228 42.21317074 -68.23022461 45.11865234 C-68.73158416 45.61671458 -69.23294372 46.11477681 -69.74949598 46.62793183 C-74.49430895 51.34200984 -79.23707734 56.05813637 -83.97506142 60.77907848 C-89.98620489 66.76832544 -96.00719979 72.74727362 -102.04205287 78.71263236 C-106.31368639 82.93676936 -110.57352795 87.17257858 -114.82509267 91.41691285 C-117.35192104 93.93882891 -119.88336718 96.45561829 -122.42775345 98.95982933 C-139.2704779 115.54991342 -151.40404498 129.01605108 -151.6088562 153.78956604 C-151.60435455 155.06001266 -151.59985291 156.33045929 -151.59521484 157.6394043 C-151.60093303 159.02569117 -151.60790282 160.41197335 -151.61601257 161.79824829 C-151.63380207 165.52783391 -151.63280239 169.25718244 -151.62707019 172.98679757 C-151.62395674 176.11751623 -151.63009472 179.24819075 -151.63610893 182.37890309 C-151.65010672 189.77453146 -151.64863341 197.17004421 -151.63720703 204.56567383 C-151.62573804 212.15587274 -151.63979169 219.74571779 -151.66660351 227.33587009 C-151.68886982 233.88833429 -151.69537322 240.44068832 -151.68952709 246.99318761 C-151.68618137 250.89087767 -151.68841116 254.78834123 -151.70577812 258.68599892 C-151.72142039 262.35607236 -151.71710418 266.02562825 -151.69847298 269.69568253 C-151.69312096 271.6572021 -151.7071697 273.61874592 -151.72216797 275.58021545 C-151.5594645 295.54150691 -144.4201718 309.95664707 -130.43896484 323.80322266 C-129.47441722 324.77621038 -128.51092207 325.75024239 -127.54838562 326.72521973 C-124.9603667 329.34001523 -122.35702335 331.93900144 -119.74953723 334.53436756 C-117.56063848 336.71607183 -115.37968262 338.90563286 -113.19863182 341.09517837 C-108.04610111 346.26757757 -102.88105762 351.42723201 -97.70751953 356.57861328 C-92.4007295 361.86305877 -87.11420464 367.16715919 -81.83752483 372.48165727 C-77.2783549 377.07222986 -72.7074254 381.6508557 -68.12700421 386.22022414 C-65.40383913 388.9369553 -62.6849121 391.6575733 -59.97701836 394.389534 C-43.11251699 411.38697668 -29.13624653 424.59632968 -3.78977966 424.80587769 C-2.51933304 424.80137604 -1.24888641 424.79687439 0.06005859 424.79223633 C1.44634547 424.79795452 2.83262764 424.80492431 4.21890259 424.81303406 C7.94848821 424.83082355 11.67783674 424.82982388 15.40745187 424.82409167 C18.53817053 424.82097823 21.66884505 424.82711621 24.79955739 424.83313042 C32.19518576 424.84712821 39.59069851 424.84565489 46.98632812 424.83422852 C54.57652704 424.82275953 62.16637209 424.83681318 69.75652438 424.86362499 C76.30898859 424.88589131 82.86134261 424.89239471 89.4138419 424.88654858 C93.31153197 424.88320286 97.20899553 424.88543264 101.10665321 424.90279961 C104.77672666 424.91844187 108.44628255 424.91412567 112.11633682 424.89549446 C114.0778564 424.89014245 116.03940021 424.90419118 118.00086975 424.91918945 C137.97977978 424.75634238 152.39362524 417.60944876 166.23974609 403.60424805 C167.2143454 402.6364461 168.19000022 401.66970613 169.16661072 400.70393372 C171.78539744 398.10769542 174.38841466 395.49618919 176.98795342 392.88069558 C179.72907051 390.12679127 182.48251356 387.38525175 185.2339325 384.64164734 C189.84970698 380.03493245 194.45492431 375.41786156 199.05419922 370.79467773 C204.34814431 365.47352865 209.65985956 360.17063017 214.98116046 354.87684852 C219.57504675 350.30575799 224.15898572 345.72486354 228.73496693 341.1358487 C231.45684166 338.40623671 234.18184341 335.67997647 236.91591835 332.96257973 C239.48758964 330.40550739 242.04642949 327.83621425 244.59646034 325.25756645 C245.96441502 323.88000396 247.34448176 322.51450099 248.72506714 321.14959717 C262.64875355 306.99043918 267.4607422 291.39127725 267.31054688 271.7487793 C267.31434385 270.35718239 267.31985511 268.96558929 267.32691956 267.57400513 C267.34070837 263.84470221 267.32982504 260.11586921 267.31320834 256.3865931 C267.29920333 252.45647213 267.30583497 248.52637421 267.30934143 244.59623718 C267.31203054 238.00394244 267.2986774 231.41183114 267.27539062 224.81958008 C267.24875587 217.2275966 267.2470492 209.63591884 267.25877899 202.0439046 C267.26960201 194.69745034 267.2633365 187.35110529 267.24922371 180.00465965 C267.24350632 176.89690721 267.24351267 173.78923581 267.24828911 170.68148232 C267.25310354 167.01635123 267.24277521 163.35154997 267.22133446 159.68648148 C267.21322661 157.72085896 267.21956706 155.75519294 267.22653198 153.78956604 C267.02994239 130.01052098 255.48525769 116.95524821 239.44042969 100.8269043 C238.5513089 99.92960602 237.66218811 99.03230774 236.74612427 98.1078186 C233.83705921 95.17292447 230.92289825 92.24312035 228.00805664 89.31396484 C226.99512827 88.29566355 225.98220219 87.27735997 224.96927834 86.25905418 C220.75313653 82.02135499 216.53558385 77.7850683 212.31431866 73.55247211 C206.3087567 67.53066762 200.31186876 61.50051156 194.32669133 55.45844394 C190.09061622 51.1835062 185.84484644 46.9183489 181.59193164 42.66016454 C179.06358718 40.12819348 176.53947021 37.59234199 174.02573204 35.0458622 C171.21950802 32.20359907 168.3934223 29.38188421 165.56542969 26.5612793 C164.75309372 25.73253799 163.94075775 24.90379669 163.10380554 24.04994202 C150.42772787 11.5080182 135.79301967 6.00220064 118.00086975 5.85717773 C116.73649582 5.8668457 115.47212189 5.87651367 114.16943359 5.88647461 C112.77783668 5.88267763 111.38624358 5.87716637 109.99465942 5.87010193 C106.26535651 5.85631312 102.5365235 5.86719645 98.8072474 5.88381314 C94.87712642 5.89781815 90.94702851 5.89118652 87.01689148 5.88768005 C80.42459674 5.88499094 73.83248544 5.89834408 67.24023438 5.92163086 C59.6482509 5.94826562 52.05657314 5.94997229 44.4645589 5.9382425 C37.11810464 5.92741947 29.77175958 5.93368499 22.42531395 5.94779778 C19.3175615 5.95351516 16.2098901 5.95350882 13.10213661 5.94873238 C9.43700553 5.94391795 5.77220427 5.95424627 2.10713577 5.97568703 C0.14151325 5.98379487 -1.82415276 5.97745442 -3.78977966 5.9704895 C-27.55830412 6.16699211 -40.60103406 17.70390123 -56.73657227 33.72485352 Z " fill="#E7CC9E" transform="translate(192.191162109375,34.61181640625)"/>
<path d="M0 0 C10.89 0 21.78 0 33 0 C33.33 11.22 33.66 22.44 34 34 C36.330625 31.525 38.66125 29.05 41.0625 26.5 C41.78187744 25.73751953 42.50125488 24.97503906 43.24243164 24.18945312 C46.36105501 20.86994336 49.44104103 17.52762868 52.43359375 14.09375 C53.30564453 13.12864502 53.30564453 13.12864502 54.1953125 12.14404297 C56.09020337 9.97673278 56.09020337 9.97673278 57.78515625 7.29736328 C62.59906157 0.6322282 62.59906157 0.6322282 66.93634033 -0.5098877 C72.47371289 -1.2401286 78.00312457 -0.91243235 83.5625 -0.625 C85.2557275 -0.57476548 86.94909871 -0.52915101 88.64257812 -0.48828125 C92.76530529 -0.37880347 96.88105082 -0.20672666 101 0 C99.57567584 2.97816718 98.22096735 4.97931682 95.8125 7.25 C93.40558542 9.58814559 91.12027956 11.95157717 88.9375 14.5 C85.4016226 18.60514564 81.70604459 22.54934 78 26.5 C72.28204638 32.596936 72.28204638 32.596936 66.625 38.75 C66.10164063 39.32234375 65.57828125 39.8946875 65.0390625 40.484375 C63.71727713 42.10612625 63.71727713 42.10612625 64 45 C65.03515431 46.83210891 65.03515431 46.83210891 66.5 48.7109375 C67.04946289 49.45069824 67.59892578 50.19045898 68.16503906 50.95263672 C68.77057617 51.7520166 69.37611328 52.55139648 70 53.375 C70.62358398 54.20918457 71.24716797 55.04336914 71.88964844 55.90283203 C73.91746876 58.60877075 75.95709768 61.30543287 78 64 C78.68384766 64.90363281 79.36769531 65.80726563 80.07226562 66.73828125 C85.75868125 74.24499423 91.46595339 81.73574569 97.234375 89.1796875 C97.70842773 89.79215332 98.18248047 90.40461914 98.67089844 91.03564453 C99.90293043 92.6247938 101.13880259 94.21096385 102.375 95.796875 C104 98 104 98 104 99 C98.66629834 99.3745577 93.34041322 99.64450688 87.99658203 99.82397461 C86.18565514 99.89882625 84.37561716 100.00077456 82.56787109 100.1315918 C68.04585647 101.15511687 68.04585647 101.15511687 63.05432129 97.62332153 C59.46567366 94.12743227 56.75603873 90.1063825 54.14807129 85.84933472 C52.65756041 83.4483919 50.95284499 81.25190493 49.203125 79.03515625 C48.21615546 77.71287014 47.23162118 76.3887614 46.25 75.0625 C45.73179687 74.36705078 45.21359375 73.67160156 44.6796875 72.95507812 C43.45076726 71.30513891 42.22498598 69.65286228 41 68 C37.59836273 69.40757404 35.91775156 70.85508878 34 74 C33.49888483 76.79763443 33.49888483 76.79763443 33.48828125 79.859375 C33.43861206 81.36709473 33.43861206 81.36709473 33.38793945 82.90527344 C33.36304443 84.1740332 33.33814941 85.44279297 33.3125 86.75 C33.209375 90.7925 33.10625 94.835 33 99 C22.11 99 11.22 99 0 99 C0 66.33 0 33.66 0 0 Z " fill="#F0D4A3" transform="translate(219,170)"/>
<path d="M0 0 C11.22 0 22.44 0 34 0 C42.41424385 18.51133648 50.68814928 37.06888537 58.78271484 55.72167969 C62.07218709 63.29888854 65.37177368 70.87027333 68.74609375 78.41015625 C69.03282959 79.05135406 69.31956543 79.69255188 69.61499023 80.35317993 C70.93720529 83.3073064 72.2644525 86.25904298 73.59814453 89.20800781 C74.0517334 90.21831055 74.50532227 91.22861328 74.97265625 92.26953125 C75.36718994 93.14198486 75.76172363 94.01443848 76.16821289 94.91333008 C77 97 77 97 77 99 C65.45 99 53.9 99 42 99 C36 84 36 84 36 82 C23.46 82.33 10.92 82.66 -2 83 C-3.98 88.28 -5.96 93.56 -8 99 C-19.22 99 -30.44 99 -42 99 C-41.05467856 94.27339278 -39.5454996 90.33853968 -37.59765625 85.984375 C-37.24816925 85.19220078 -36.89868225 84.40002655 -36.53860474 83.58384705 C-35.38447641 80.97051545 -34.22342745 78.36031738 -33.0625 75.75 C-32.25572657 73.9257757 -31.44950087 72.10130908 -30.64379883 70.27661133 C-28.95840511 66.46094175 -27.27061901 62.64634414 -25.58105469 58.83251953 C-21.82204456 50.34341871 -18.08690754 41.84383915 -14.35421753 33.34313965 C-13.21351199 30.74670753 -12.07090511 28.15111912 -10.92797852 25.55566406 C-10.21624996 23.93687474 -9.50457723 22.31806086 -8.79296875 20.69921875 C-8.32674606 19.64201881 -8.32674606 19.64201881 -7.85110474 18.5634613 C-5.14835725 12.40749303 -2.58754022 6.21009654 0 0 Z " fill="#F0D4A3" transform="translate(136,170)"/>
<path d="M0 0 C11.22 0 22.44 0 34 0 C34 24.09 34 48.18 34 73 C48.52 73 63.04 73 78 73 C78 81.58 78 90.16 78 99 C52.26 99 26.52 99 0 99 C0 66.33 0 33.66 0 0 Z " fill="#F0D4A3" transform="translate(328,170)"/>
<path d="M0 0 C10 0 10 0 12.078125 1.6171875 C12.46484375 2.36226563 12.8515625 3.10734375 13.25 3.875 C13.70117188 4.68582031 14.15234375 5.49664062 14.6171875 6.33203125 C15.07351562 7.21246094 15.52984375 8.09289062 16 9 C17.11620065 10.85947712 18.24100343 12.71382187 19.375 14.5625 C20.25225199 16.04033219 21.12809876 17.51900464 22 19 C22.87830273 17.71057684 23.75237623 16.41827318 24.625 15.125 C25.18058594 14.31417969 25.73617187 13.50335938 26.30859375 12.66796875 C28.05251556 10.0346788 28.05251556 10.0346788 29.34765625 7.17578125 C29.78980469 6.27214844 30.23195312 5.36851562 30.6875 4.4375 C31.06261719 3.59058594 31.43773437 2.74367188 31.82421875 1.87109375 C34 0 34 0 45 0 C45 12.54 45 25.08 45 38 C41.04 38 37.08 38 33 38 C32.67 33.38 32.34 28.76 32 24 C30.96875 25.815 29.9375 27.63 28.875 29.5 C27.1171875 32.59375 27.1171875 32.59375 25 35 C22 35.71875 22 35.71875 19 35 C16.01381976 31.29757726 14.21006309 27.24332113 12 23 C11.67 27.95 11.34 32.9 11 38 C7.37 38 3.74 38 0 38 C0 25.46 0 12.92 0 0 Z " fill="#EED3A2" transform="translate(142,293)"/>
<path d="M0 0 C5.754375 -0.0928125 5.754375 -0.0928125 11.625 -0.1875 C13.42251709 -0.22846802 13.42251709 -0.22846802 15.25634766 -0.27026367 C22.72483374 -0.32858183 27.16237399 0.4708116 32.875 5.5625 C35.54468339 9.02704058 35.64574638 12.32498185 35.43359375 16.59375 C34.62612114 21.07485928 32.12847968 23.87152032 29 27 C31.31 30.63 33.62 34.26 36 38 C23.46669083 39.06846885 23.46669083 39.06846885 19.95703125 36.51171875 C18.26503592 34.11513885 17 31.99265205 17 29 C15.68 29 14.36 29 13 29 C13 31.97 13 34.94 13 38 C8.71 38 4.42 38 0 38 C0 25.46 0 12.92 0 0 Z " fill="#EED2A2" transform="translate(370,293)"/>
<path d="M0 0 C5.754375 -0.0928125 5.754375 -0.0928125 11.625 -0.1875 C13.42251709 -0.22846802 13.42251709 -0.22846802 15.25634766 -0.27026367 C22.72483374 -0.32858183 27.16237399 0.4708116 32.875 5.5625 C35.54468339 9.02704058 35.64574638 12.32498185 35.43359375 16.59375 C34.62612114 21.07485928 32.12847968 23.87152032 29 27 C31.31 30.63 33.62 34.26 36 38 C23.46669083 39.06846885 23.46669083 39.06846885 19.95703125 36.51171875 C18.26503592 34.11513885 17 31.99265205 17 29 C15.68 29 14.36 29 13 29 C13 31.97 13 34.94 13 38 C8.71 38 4.42 38 0 38 C0 25.46 0 12.92 0 0 Z " fill="#EED2A2" transform="translate(194,293)"/>
<path d="M0 0 C4.62 0 9.24 0 14 0 C16.28095318 5.25005962 18.55955258 10.50113183 20.8359375 15.75317383 C21.61132572 17.54121776 22.38736639 19.32897889 23.1640625 21.11645508 C24.27774312 23.67976717 25.38910438 26.24407369 26.5 28.80859375 C26.84998047 29.6127623 27.19996094 30.41693085 27.56054688 31.24546814 C30 36.88612829 30 36.88612829 30 38 C25.38 38 20.76 38 16 38 C15.34 36.02 14.68 34.04 14 32 C9.38 32 4.76 32 0 32 C-0.99 33.98 -1.98 35.96 -3 38 C-7.29 38 -11.58 38 -16 38 C-10.72686191 25.30695219 -5.4489846 12.61870117 0 0 Z " fill="#EED2A2" transform="translate(109,293)"/>
<path d="M0 0 C4.29 0 8.58 0 13 0 C22.89626276 21.63096168 22.89626276 21.63096168 26.625 30.25 C27.09164062 31.32765625 27.55828125 32.4053125 28.0390625 33.515625 C29 36 29 36 29 38 C24.71 38 20.42 38 16 38 C15.01 34.535 15.01 34.535 14 31 C9.05 31 4.1 31 -1 31 C-1.66 33.31 -2.32 35.62 -3 38 C-7.29 38 -11.58 38 -16 38 C-13.55998623 30.074221 -10.28105649 22.61396666 -6.875 15.0625 C-6.31862982 13.81983179 -5.76263758 12.5769943 -5.20703125 11.33398438 C-1.24503968 2.49007937 -1.24503968 2.49007937 0 0 Z " fill="#EED3A2" transform="translate(338,293)"/>
<path d="M0 0 C-0.39651917 1.31872662 -0.81798691 2.62997101 -1.25 3.9375 C-1.48203125 4.66839844 -1.7140625 5.39929688 -1.953125 6.15234375 C-3 8 -3 8 -4.984375 8.81640625 C-7 9 -7 9 -9 8 C-10.54023996 7.93049459 -12.08334988 7.91547643 -13.625 7.9375 C-14.44226563 7.94652344 -15.25953125 7.95554687 -16.1015625 7.96484375 C-16.72804688 7.97644531 -17.35453125 7.98804688 -18 8 C-18.33 8.99 -18.66 9.98 -19 11 C-18.05898438 11.15855469 -17.11796875 11.31710937 -16.1484375 11.48046875 C-2.60375051 14.01834488 -2.60375051 14.01834488 1 19 C1.97434067 23.76955472 1.71817452 27.59357489 -0.5 31.9375 C-6.213295 36.65096838 -11.97304843 37.48581836 -19.16796875 37.3046875 C-23.6477934 36.82272016 -27.77947239 35.53806646 -32 34 C-31.49287967 30.28111761 -30.88391785 27.26545761 -29 24 C-27.865625 24.33 -26.73125 24.66 -25.5625 25 C-21.00204151 26.15847067 -16.67838994 26.19493291 -12 26 C-11.67 25.34 -11.34 24.68 -11 24 C-12.28583984 23.76216797 -12.28583984 23.76216797 -13.59765625 23.51953125 C-20.55590298 22.09964099 -25.69765729 20.82031156 -31 16 C-32.23534045 12.29397865 -32.45528745 9.90246386 -32 6 C-25.03806191 -5.61101756 -11.23902116 -5.28895113 0 0 Z " fill="#ECD0A1" transform="translate(320,295)"/>
<path d="M0 0 C11.55 0 23.1 0 35 0 C35 3.3 35 6.6 35 10 C31.37 10 27.74 10 24 10 C24 19.24 24 28.48 24 38 C19.71 38 15.42 38 11 38 C11 28.76 11 19.52 11 10 C7.37 10 3.74 10 0 10 C0 6.7 0 3.4 0 0 Z " fill="#EED3A2" transform="translate(251,293)"/>
<path d="M0 0 C3.96 0 7.92 0 12 0 C12 12.54 12 25.08 12 38 C8.04 38 4.08 38 0 38 C0 25.46 0 12.92 0 0 Z " fill="#F2D6A4" transform="translate(235,293)"/>
<path d="M0 0 C0.66 0 1.32 0 2 0 C3.34146494 3.43438215 4.67175905 6.87298417 6 10.3125 C6.3815625 11.28896484 6.763125 12.26542969 7.15625 13.27148438 C7.5171875 14.20927734 7.878125 15.14707031 8.25 16.11328125 C8.58515625 16.97735596 8.9203125 17.84143066 9.265625 18.73168945 C10 21 10 21 10 24 C3.73 24 -2.54 24 -9 24 C-6 16 -3 8 0 0 Z " fill="#312A47" transform="translate(152,204)"/>
<path d="M0 0 C3.375 -0.125 3.375 -0.125 7 0 C9 2 9 2 9.25 4.5 C9 7 9 7 7 9 C3.375 9.125 3.375 9.125 0 9 C0 6.03 0 3.06 0 0 Z " fill="#2A2444" transform="translate(383,303)"/>
<path d="M0 0 C3.375 -0.125 3.375 -0.125 7 0 C9 2 9 2 9.25 4.5 C9 7 9 7 7 9 C3.375 9.125 3.375 9.125 0 9 C0 6.03 0 3.06 0 0 Z " fill="#2A2444" transform="translate(207,303)"/>
<path d="M0 0 C0.66 0 1.32 0 2 0 C2.66 2.97 3.32 5.94 4 9 C1.69 9 -0.62 9 -3 9 C-2.01 6.03 -1.02 3.06 0 0 Z " fill="#3F374E" transform="translate(115,306)"/>
<path d="M0 0 C2.6855594 2.6855594 3.06049974 5.37621328 4 9 C1.69 9 -0.62 9 -3 9 C-2.01 6.03 -1.02 3.06 0 0 Z " fill="#38304A" transform="translate(344,306)"/>
</svg>
